<svg width="75" height="72" viewBox="0 0 75 72" fill="none" xmlns="http://www.w3.org/2000/svg">
<path d="M72.7447 1.79221C71.4927 0.641713 69.8303 0 68.1016 0C66.3729 0 64.7104 0.641713 63.4584 1.79221L46.4329 18.224L6.19141 9.26164L0.000863764 15.2363L32.5031 31.668L15.4776 48.0998L4.64269 46.6059L0 51.0875L13.9298 58.5561L21.6682 72L26.3117 67.5184L24.7639 57.0622L41.7894 40.6304L58.8149 72L65.0063 66.0246L55.72 27.1864L72.7455 10.7546C73.9377 9.54631 74.6025 7.94173 74.6024 6.27326C74.6022 4.60478 73.9371 3.00029 72.7447 1.79221V1.79221Z" fill="white"/>
</svg>
