<svg width="55" height="72" viewBox="0 0 55 72" fill="none" xmlns="http://www.w3.org/2000/svg">
<path d="M54.5743 66.9262H50.2547V14.629C50.2547 13.948 49.7248 13.4151 49.0408 13.4151H44.0373L44.0402 4.62459C44.0402 3.94363 43.5103 3.41069 42.8263 3.41069H38.3558V1.2139C38.3558 0.532946 37.8258 0 37.1419 0H18.1193C17.4384 0 16.9054 0.52996 16.9054 1.2139V3.41069H12.4349C11.7539 3.41069 11.221 3.94065 11.221 4.62459V13.4181H6.21742C5.53646 13.4181 5.00352 13.9481 5.00352 14.632V67.0065H0.455941C0.227971 67.0065 0 67.2345 0 67.4624V71.5541C0 71.782 0.227971 72.01 0.455941 72.01H54.4971C54.7251 72.01 54.953 71.782 54.953 71.5541V67.4624C55.03 67.1545 54.8023 66.9262 54.5743 66.9262ZM15.7691 49.7954C15.7691 50.0234 15.5411 50.2514 15.3131 50.2514H11.5235C11.2955 50.2514 11.0675 50.0234 11.0675 49.7954V43.581C11.0675 43.353 11.2955 43.1251 11.5235 43.1251H15.3131C15.5411 43.1251 15.7691 43.353 15.7691 43.581V49.7954ZM15.7691 37.8967C15.7691 38.1246 15.5411 38.3526 15.3131 38.3526H11.5235C11.2955 38.3526 11.0675 38.1246 11.0675 37.8967V31.6823C11.0675 31.4543 11.2955 31.2263 11.5235 31.2263H15.3131C15.5411 31.2263 15.7691 31.4543 15.7691 31.6823V37.8967ZM15.7691 25.9979C15.7691 26.2259 15.5411 26.4539 15.3131 26.4539H11.5235C11.2955 26.4539 11.0675 26.2259 11.0675 25.9979V19.7835C11.0675 19.5555 11.2955 19.3276 11.5235 19.3276H15.3131C15.5411 19.3276 15.7691 19.5555 15.7691 19.7835V25.9979ZM18.7238 12.2043L17.1309 13.0393C16.9799 13.1163 16.8289 12.9623 16.8289 12.8113L17.1309 10.9935V10.9165L15.843 9.62864C15.6921 9.47765 15.7661 9.32665 15.994 9.24968L17.8119 8.94769C17.8119 8.94769 17.8888 8.94769 17.8888 8.87071L18.7238 7.20387C18.8007 7.05288 19.0258 7.05288 19.1027 7.20387L19.9377 8.87071L20.0146 8.94769L21.8325 9.17566C21.9835 9.17566 22.0604 9.40363 21.9835 9.55462L20.6186 10.8425C20.6186 10.8425 20.5416 10.9195 20.6186 10.9195L20.9206 12.7373C20.9206 12.8883 20.7696 13.0393 20.6186 12.9653L18.9517 12.1303C18.8007 12.1274 18.8008 12.1274 18.7238 12.2043ZM24.7872 38.4272H20.9976C20.7696 38.4272 20.5416 38.1993 20.5416 37.9713V31.7569C20.5416 31.5289 20.7696 31.3009 20.9976 31.3009H24.7872C25.0152 31.3009 25.2432 31.5289 25.2432 31.7569V37.9713C25.2432 38.1993 25.0152 38.4272 24.7872 38.4272ZM25.2432 43.6587V49.8731C25.2432 50.1011 25.0152 50.3291 24.7872 50.3291H20.9976C20.7696 50.3291 20.5416 50.1011 20.5416 49.8731V43.6587C20.5416 43.4307 20.7696 43.2027 20.9976 43.2027H24.7872C25.0152 43.1258 25.2432 43.3537 25.2432 43.6587ZM24.7872 26.5279H20.9976C20.7696 26.5279 20.5416 26.3 20.5416 26.072V19.8576C20.5416 19.6296 20.7696 19.4016 20.9976 19.4016H24.7872C25.0152 19.4016 25.2432 19.6296 25.2432 19.8576V26.072C25.2432 26.3 25.0152 26.5279 24.7872 26.5279ZM26.229 66.1685C26.229 66.3964 26.0011 66.6244 25.7731 66.6244H20.5446C20.3166 66.6244 20.0887 66.3964 20.0887 66.1685V55.5574C20.0887 55.3295 20.3166 55.1015 20.5446 55.1015H25.7731C26.0011 55.1015 26.229 55.3295 26.229 55.5574V66.1685ZM27.44 12.2046L25.8471 13.0395C25.6961 13.1165 25.5451 12.9625 25.5451 12.8115L25.8471 10.9937V10.9167L24.4852 9.55186C24.3342 9.40087 24.4082 9.24987 24.6362 9.1729L26.454 8.87091C26.454 8.87091 26.531 8.87091 26.531 8.79393L27.3659 7.12709C27.4429 6.9761 27.6679 6.9761 27.7449 7.12709L28.5798 8.79393L28.6568 8.87091L30.4746 9.09888C30.6256 9.09888 30.7026 9.32685 30.6256 9.47784L29.2607 10.7657C29.2607 10.7657 29.1837 10.8427 29.2607 10.8427L29.5627 12.6605C29.5627 12.8115 29.4117 12.9625 29.2607 12.8885L27.5169 12.2046C27.5169 12.1276 27.44 12.1276 27.44 12.2046ZM34.3384 38.4275H30.5487C30.3207 38.4275 30.0928 38.1995 30.0928 37.9715V31.7571C30.0928 31.5291 30.3207 31.3011 30.5487 31.3011H34.3384C34.5663 31.3011 34.7943 31.5291 34.7943 31.7571V37.9715C34.7943 38.1995 34.5663 38.4275 34.3384 38.4275ZM34.7943 43.6589V49.8733C34.7943 50.1013 34.5663 50.3293 34.3384 50.3293H30.5487C30.3207 50.3293 30.0928 50.1013 30.0928 49.8733V43.6589C30.0928 43.4309 30.3207 43.203 30.5487 43.203H34.3384C34.5663 43.126 34.7943 43.354 34.7943 43.6589ZM34.3384 26.5282H30.5487C30.3207 26.5282 30.0928 26.3002 30.0928 26.0722V19.8578C30.0928 19.6298 30.3207 19.4019 30.5487 19.4019H34.3384C34.5663 19.4019 34.7943 19.6298 34.7943 19.8578V26.0722C34.7943 26.3002 34.5663 26.5282 34.3384 26.5282ZM35.2473 66.1687C35.2473 66.3967 35.0193 66.6246 34.7913 66.6246H29.5628C29.3349 66.6246 29.1069 66.3967 29.1069 66.1687V55.5577C29.1069 55.3297 29.3349 55.1017 29.5628 55.1017H34.7913C35.0193 55.1017 35.2473 55.3297 35.2473 55.5577V66.1687ZM39.2649 9.62557L37.9 10.9134C37.9 10.9134 37.823 10.9904 37.9 10.9904L38.202 12.8082C38.202 12.9592 38.051 13.1102 37.9 13.0362L36.2332 12.2013H36.1562L34.5633 13.0362C34.4123 13.1132 34.2613 12.9592 34.2613 12.8082L34.5633 10.9904V10.9134L33.2755 9.62557C33.1245 9.47457 33.1985 9.32358 33.4265 9.2466L35.2443 8.94461C35.2443 8.94461 35.3213 8.94461 35.3213 8.86764L36.1562 7.20079C36.2332 7.0498 36.4582 7.0498 36.5352 7.20079L37.3701 8.86764L37.4471 8.94461L39.2649 9.17258C39.3419 9.2466 39.4159 9.47457 39.2649 9.62557ZM44.2684 49.7959C44.2684 50.0238 44.0405 50.2518 43.8125 50.2518H40.0229C39.7949 50.2518 39.5669 50.0238 39.5669 49.7959V43.5815C39.5669 43.3535 39.7949 43.1255 40.0229 43.1255H43.8125C44.0405 43.1255 44.2684 43.3535 44.2684 43.5815V49.7959ZM44.2684 37.8971C44.2684 38.1251 44.0405 38.3531 43.8125 38.3531H40.0229C39.7949 38.3531 39.5669 38.1251 39.5669 37.8971V31.6827C39.5669 31.4547 39.7949 31.2268 40.0229 31.2268H43.8125C44.0405 31.2268 44.2684 31.4547 44.2684 31.6827V37.8971ZM44.2684 25.9984C44.2684 26.2263 44.0405 26.4543 43.8125 26.4543H40.0229C39.7949 26.4543 39.5669 26.2263 39.5669 25.9984V19.784C39.5669 19.556 39.7949 19.328 40.0229 19.328H43.8125C44.0405 19.328 44.2684 19.556 44.2684 19.784V25.9984Z" fill="white"/>
</svg>
