<svg width="74" height="72" viewBox="0 0 74 72" fill="none" xmlns="http://www.w3.org/2000/svg">
<path d="M63.9506 54.2721C63.9506 54.505 64.0293 54.8134 64.1835 55.0463L67.5132 60.387C68.0545 61.3154 69.37 61.3154 69.9144 60.387L73.2441 55.0463C73.3983 54.8134 73.4769 54.5806 73.4769 54.2721V52.0282L63.9504 52.0251L63.9506 54.2721Z" fill="white"/>
<path d="M72.0797 16.5656H65.4204C64.6462 16.5656 63.9507 17.1856 63.9507 18.0353V22.1392H73.5492V18.0353C73.5492 17.1855 72.9292 16.5656 72.0794 16.5656H72.0797Z" fill="white"/>
<path d="M63.9507 26.1681H73.5492V47.9245H63.9507V26.1681Z" fill="white"/>
<path d="M53.3407 5.65217H46.8387V1.46973C46.8387 0.695538 46.2188 0 45.369 0H40.6452C39.871 0 39.1754 0.619961 39.1754 1.46973V5.64915H32.0534L32.0504 1.46973C32.0504 0.695538 31.4304 0 30.5807 0H25.8568C25.0826 0 24.3871 0.619961 24.3871 1.46973V5.64915H17.2651V1.46973C17.2651 0.695538 16.6452 0 15.7954 0H11.0715C10.2974 0 9.60181 0.619961 9.60181 1.46973V5.64915L3.48388 5.65218C1.54839 5.65218 0 7.20057 0 9.13606V68.5161C0 70.4516 1.54839 72 3.48388 72H53.4195C55.355 72 56.9034 70.4516 56.9034 68.5161V9.13606C56.8248 7.20057 55.2764 5.65218 53.3409 5.65218L53.3407 5.65217ZM14.1679 60.3089H11.9996C10.9169 60.3089 9.98543 59.3804 9.98543 58.2947C9.98543 57.2121 10.9138 56.2806 11.9996 56.2806H14.1679C15.2506 56.2806 16.1821 57.209 16.1821 58.2947C16.1791 59.3804 15.2507 60.3089 14.1679 60.3089ZM14.1679 47.3047H11.9996C10.9169 47.3047 9.98543 46.3763 9.98543 45.2905C9.98543 44.2079 10.9138 43.2764 11.9996 43.2764H14.1679C15.2506 43.2764 16.1821 44.2048 16.1821 45.2905C16.1791 46.3732 15.2507 47.3047 14.1679 47.3047ZM14.1679 34.3733H11.9996C10.9169 34.3733 9.98543 33.4449 9.98543 32.3591C9.98543 31.2765 10.9138 30.345 11.9996 30.345H14.1679C15.2506 30.345 16.1821 31.2734 16.1821 32.3591C16.1791 33.4448 15.2507 34.3733 14.1679 34.3733ZM14.1679 21.3691H11.9996C10.9169 21.3691 9.98543 20.4407 9.98543 19.355C9.98543 18.2723 10.9138 17.3408 11.9996 17.3408H14.1679C15.2506 17.3408 16.1821 18.2692 16.1821 19.355C16.1791 20.5163 15.2507 21.3691 14.1679 21.3691ZM44.8246 60.3089H23.1471C22.0644 60.3089 21.1329 59.3804 21.1329 58.2947C21.1329 57.2121 22.0613 56.2806 23.1471 56.2806H44.8246C45.9072 56.2806 46.8387 57.209 46.8387 58.2947C46.8387 59.3804 45.9103 60.3089 44.8246 60.3089ZM44.8246 47.3047H23.1471C22.0644 47.3047 21.1329 46.3763 21.1329 45.2905C21.1329 44.2079 22.0613 43.2764 23.1471 43.2764H44.8246C45.9072 43.2764 46.8387 44.2048 46.8387 45.2905C46.8387 46.3732 45.9103 47.3047 44.8246 47.3047ZM44.8246 34.3733H23.1471C22.0644 34.3733 21.1329 33.4449 21.1329 32.3591C21.1329 31.2765 22.0613 30.345 23.1471 30.345H44.8246C45.9072 30.345 46.8387 31.2734 46.8387 32.3591C46.8387 33.4449 45.9103 34.3733 44.8246 34.3733ZM44.8246 21.3691H23.1471C22.0644 21.3691 21.1329 20.4407 21.1329 19.355C21.1329 18.2723 22.0613 17.3408 23.1471 17.3408H44.8246C45.9072 17.3408 46.8387 18.2692 46.8387 19.355C46.8387 20.5163 45.9103 21.3691 44.8246 21.3691Z" fill="white"/>
</svg>
